<svg xmlns="http://www.w3.org/2000/svg" viewBox="0 0 1200 675" role="img" aria-labelledby="title description">
  <title id="title">Cluckin Chuck wing spot</title>
  <desc id="description">A playful illustrated chicken wing on a warm orange background.</desc>
  <defs>
    <linearGradient id="background" x1="0" y1="0" x2="1" y2="1">
      <stop offset="0" stop-color="#f39c12"/>
      <stop offset="1" stop-color="#d35400"/>
    </linearGradient>
    <filter id="shadow" x="-20%" y="-20%" width="140%" height="140%">
      <feDropShadow dx="0" dy="18" stdDeviation="18" flood-color="#2c1810" flood-opacity=".28"/>
    </filter>
  </defs>
  <rect width="1200" height="675" fill="url(#background)"/>
  <g fill="none" stroke="#fdf6e3" stroke-linecap="round" opacity=".22">
    <path d="M90 120h190M930 550h180" stroke-width="18"/>
    <path d="M150 190h90M990 480h90" stroke-width="10"/>
  </g>
  <g filter="url(#shadow)" transform="translate(600 322) rotate(-12)">
    <path d="M-235 5c-12-116 69-204 177-194 79 8 125 57 168 108 33 40 68 66 130 75 58 8 91 52 79 103-13 55-65 79-121 55-39-17-66-12-101 20-67 61-150 93-224 60-66-29-100-99-108-227Z" fill="#fdf6e3"/>
    <path d="M-184 1c-7-78 48-137 121-131 60 5 94 45 132 91 31 37 68 68 122 79-52 3-93 23-128 58-53 52-115 79-169 56-47-20-72-71-78-153Z" fill="#e67e22"/>
    <path d="M-125-77c41-27 87-16 120 20M-143 39c30 45 76 59 121 39M41 3c28 18 51 29 88 36" fill="none" stroke="#d35400" stroke-linecap="round" stroke-width="18"/>
    <circle cx="251" cy="75" r="55" fill="#fdf6e3"/>
    <circle cx="300" cy="104" r="31" fill="#fdf6e3"/>
  </g>
  <text x="600" y="605" fill="#fdf6e3" font-family="system-ui, sans-serif" font-size="46" font-weight="800" letter-spacing="4" text-anchor="middle">CLUCKIN’ CHUCK</text>
</svg>
